<?xml version="1.0" standalone="no"?>
<!DOCTYPE svg PUBLIC "-//W3C//DTD SVG 1.0//EN" "http://www.w3.org/TR/2001/REC-SVG-20010904/DTD/svg10.dtd">
<svg xmlns="http://www.w3.org/2000/svg" xmlns:xlink="http://www.w3.org/1999/xlink" id="body_1" width="56" height="56">

<defs>
    <clipPath  id="1">

    <path id=""  clip-rule="evenodd" transform="matrix(1 0 0 1 0 0)"  d="M0 42L0 0L0 0L42 0L42 0L42 42L42 42L0 42z" />    </clipPath>
</defs>

<g transform="matrix(1.3333 0 0 1.3333 0 0)">
	<g clip-path="url(#1)" >
    <path id=""  transform="matrix(1 0 0 -1 0 42)"  d="M20.898449 19.065826C 20.490524 19.065826 20.09175 19.186726 19.752525 19.413376L19.752525 19.413376L19.752525 19.413376C 19.413376 19.640026 19.149 19.96215 18.992926 20.339025L18.992926 20.339025L18.992926 20.339025C 18.836851 20.7159 18.795975 21.130575 18.87555 21.5307L18.87555 21.5307L18.87555 21.5307C 18.955126 21.93075 19.15155 22.29825 19.44 22.5867L19.44 22.5867L19.44 22.5867C 19.72845 22.87515 20.09595 23.071575 20.496075 23.15115L20.496075 23.15115L20.496075 23.15115C 20.896126 23.230724 21.3108 23.189926 21.687675 23.033775L21.687675 23.033775L21.687675 23.033775C 22.064548 22.877699 22.386675 22.613325 22.613325 22.274176L22.613325 22.274176L22.613325 22.274176C 22.839975 21.93495 22.960949 21.536251 22.960949 21.128326L22.960949 21.128326L22.960949 21.128326C 22.953674 20.583525 22.734001 20.063175 22.3488 19.6779L22.3488 19.6779L22.3488 19.6779C 21.963526 19.2927 21.443176 19.0731 20.898449 19.065826zM11.964075 19.065826C 11.55615 19.065826 11.157375 19.186726 10.81815 19.413376L10.81815 19.413376L10.81815 19.413376C 10.479 19.640026 10.214625 19.96215 10.05855 20.339025L10.05855 20.339025L10.05855 20.339025C 9.902475 20.7159 9.8616 21.130575 9.941175 21.5307L9.941175 21.5307L9.941175 21.5307C 10.02075 21.93075 10.217175 22.29825 10.505625 22.5867L10.505625 22.5867L10.505625 22.5867C 10.794075 22.87515 11.161575 23.071575 11.5617 23.15115L11.5617 23.15115L11.5617 23.15115C 11.96175 23.230724 12.376425 23.189926 12.7533 23.033775L12.7533 23.033775L12.7533 23.033775C 13.130176 22.877699 13.452299 22.613325 13.678949 22.274176L13.678949 22.274176L13.678949 22.274176C 13.9056 21.93495 14.026575 21.536251 14.026575 21.128326L14.026575 21.128326L14.026575 21.128326C 14.0193 20.583525 13.799625 20.063175 13.414425 19.6779L13.414425 19.6779L13.414425 19.6779C 13.02915 19.2927 12.5088005 19.0731 11.964075 19.065826zM29.814075 23.190826C 30.222 23.190826 30.620699 23.06985 30.959925 22.8432L30.959925 22.8432L30.959925 22.8432C 31.299076 22.61655 31.56345 22.294426 31.719526 21.91755L31.719526 21.91755L31.719526 21.91755C 31.875675 21.540674 31.916477 21.126 31.836899 20.72595L31.836899 20.72595L31.836899 20.72595C 31.757326 20.325825 31.5609 19.958324 31.272451 19.669874L31.272451 19.669874L31.272451 19.669874C 30.984001 19.381424 30.616499 19.185 30.21645 19.105425L30.21645 19.105425L30.21645 19.105425C 29.816326 19.02585 29.401651 19.06665 29.024775 19.2228L29.024775 19.2228L29.024775 19.2228C 28.6479 19.378874 28.325775 19.64325 28.099125 19.982399L28.099125 19.982399L28.099125 19.982399C 27.872475 20.321625 27.751575 20.7204 27.751575 21.128326L27.751575 21.128326L27.751575 21.128326C 27.758926 21.676273 27.981152 22.1994 28.370401 22.585125L28.370401 22.585125L28.370401 22.585125C 28.75965 22.970924 29.284798 23.18835 29.832825 23.190826L29.832825 23.190826L29.832825 23.190826L29.832825 23.190826L29.814075 23.190826zM39.189075 9.700203L39.189075 9.700203L39.189075 9.700203L38.67345 11.575201L38.67345 11.575201L38.67345 11.575201C 40.956223 15.836174 41.631676 20.775675 40.576576 25.493101L40.576576 25.493101L40.576576 25.493101C 39.521477 30.210526 36.806175 34.3917 32.925674 37.274235L32.925674 37.274235L32.925674 37.274235C 29.045174 40.156784 24.257923 41.548748 19.43685 41.19634L19.43685 41.19634L19.43685 41.19634C 14.6157 40.84393 10.0818 38.770626 6.6617403 35.354424L6.6617403 35.354424L6.6617403 35.354424C 3.241665 31.938225 1.1632199 27.40665 0.80534244 22.585949L0.80534244 22.585949L0.80534244 22.585949C 0.447465 17.765251 1.8339975 12.976498 4.712145 9.092701L4.712145 9.092701L4.712145 9.092701C 7.5903006 5.2089767 11.768325 2.4888763 16.48455 1.4284477L16.48455 1.4284477L16.48455 1.4284477C 21.200775 0.36802673 26.141102 1.0378494 30.404701 3.3158264L30.404701 3.3158264L32.2797 2.8002014L32.2797 2.8002014L39.0297 0.99082184L39.0297 0.99082184L39.0297 0.99082184C 39.424652 0.895874 39.84105 0.95827484 40.190926 1.1646729L40.190926 1.1646729L40.190926 1.1646729C 40.540802 1.3710747 40.7967 1.7054253 40.9047 2.0970764L40.9047 2.0970764L40.9047 2.0970764C 40.97955 2.3637733 40.97955 2.6459274 40.9047 2.9126968L40.9047 2.9126968L39.189075 9.700203z" stroke="#FFFFFF" stroke-width="0.9375" stroke-linecap="square" fill="none" />
	</g>
</g>
</svg>