<?xml version="1.0" standalone="no"?>
<!DOCTYPE svg PUBLIC "-//W3C//DTD SVG 1.0//EN" "http://www.w3.org/TR/2001/REC-SVG-20010904/DTD/svg10.dtd">
<svg xmlns="http://www.w3.org/2000/svg" xmlns:xlink="http://www.w3.org/1999/xlink" id="body_2" width="48" height="48">

<defs>
    <clipPath  id="1">

    <path id=""  clip-rule="evenodd" transform="matrix(1 0 0 1 0 0)"  d="M0 36L0 0L0 0L36 0L36 0L36 36L36 36L0 36z" />    </clipPath>
</defs>

<g transform="matrix(1.3333 0 0 1.3333 0 0)">
	<g clip-path="url(#1)" >
    <path id=""  transform="matrix(1 0 0 -1 0 36)"  d="M27 32.616C 27 32.304 27.108002 32.04 27.324 31.824001L27.324 31.824001L27.324 31.824001C 27.54 31.608 27.803999 31.5 28.116 31.5L28.116 31.5L28.116 31.5C 28.428 31.5 28.692001 31.608 28.907999 31.824001L28.907999 31.824001L28.907999 31.824001C 29.124 32.04 29.244 32.304 29.267998 32.616L29.267998 32.616L29.267998 32.616L29.267998 32.616L29.267998 36L29.267998 36L29.267998 36L29.267998 36L27 36L27 36L27 36L27 36L27 32.616zM22.5 15.732L22.5 15.732L22.5 15.732L22.5 15.732L22.5 15.732L27 15.732L27 15.732L27 15.732L27 15.732L27 20.232L27 20.232L27 20.232L27 20.232L22.5 20.232L22.5 20.232L22.5 20.232L22.5 20.232L22.5 15.732zM22.5 9L22.5 9L22.5 9L22.5 9L22.5 9L27 9L27 9L27 9L27 9L27 13.5L27 13.5L27 13.5L27 13.5L22.5 13.5L22.5 13.5L22.5 13.5L22.5 13.5L22.5 9zM15.768 15.732L15.768 15.732L15.768 15.732L15.768 15.732L15.768 15.732L20.268 15.732L20.268 15.732L20.268 15.732L20.268 15.732L20.268 20.232L20.268 20.232L20.268 20.232L20.268 20.232L15.768 20.232L15.768 20.232L15.768 20.232L15.768 20.232L15.768 15.732zM15.768 9L15.768 9L15.768 9L15.768 9L15.768 9L20.268 9L20.268 9L20.268 9L20.268 9L20.268 13.5L20.268 13.5L20.268 13.5L20.268 13.5L15.768 13.5L15.768 13.5L15.768 13.5L15.768 13.5L15.768 9zM9 15.732L9 15.732L9 15.732L9 15.732L9 15.732L13.5 15.732L13.5 15.732L13.5 15.732L13.5 15.732L13.5 20.232L13.5 20.232L13.5 20.232L13.5 20.232L9 20.232L9 20.232L9 20.232L9 20.232L9 15.732zM9 9L9 9L9 9L9 9L9 9L13.5 9L13.5 9L13.5 9L13.5 9L13.5 13.5L13.5 13.5L13.5 13.5L13.5 13.5L9 13.5L9 13.5L9 13.5L9 13.5L9 9zM6.768 32.616C 6.768 32.304 6.8760004 32.04 7.092 31.824001L7.092 31.824001L7.092 31.824001C 7.3080006 31.608 7.5719995 31.5 7.884 31.5L7.884 31.5L7.884 31.5C 8.196 31.5 8.46 31.608 8.676 31.824001L8.676 31.824001L8.676 31.824001C 8.892 32.04 9 32.304 9 32.616L9 32.616L9 32.616L9 32.616L9 36L9 36L9 36L9 36L6.768 36L6.768 36L6.768 36L6.768 36L6.768 32.616zM4.5 6.7320023L4.5 6.7320023L4.5 6.7320023L4.5 6.7320023L4.5 6.7320023L4.5 24.732L4.5 24.732L4.5 24.732L4.5 24.732L31.5 24.732L31.5 24.732L31.5 24.732L31.5 24.732L31.5 6.7320023L31.5 6.7320023L31.5 6.7320023C 31.5 6.1080017 31.284 5.579998 30.852001 5.147999L30.852001 5.147999L30.852001 5.147999C 30.420002 4.7159996 29.891998 4.5 29.267998 4.5L29.267998 4.5L29.267998 4.5L29.267998 4.5L6.768 4.5L6.768 4.5L6.768 4.5C 6.144 4.5 5.604 4.7159996 5.148 5.147999L5.148 5.147999L5.148 5.147999C 4.692 5.579998 4.476 6.1080017 4.5 6.7320023zM0 6.7320023C 0 4.8600006 0.65999997 3.276001 1.98 1.9799995L1.98 1.9799995L1.98 1.9799995C 3.3000002 0.6839981 4.896 0.024002075 6.768 0L6.768 0L6.768 0L6.768 0L29.267998 0L29.267998 0L29.267998 0C 31.116 0 32.699997 0.65999985 34.02 1.9799995L34.02 1.9799995L34.02 1.9799995C 35.34 3.300003 36 4.884001 36 6.7320023L36 6.7320023L36 6.7320023L36 6.7320023L36 29.232L36 29.232L36 29.232C 36 30.696 35.579998 32.004 34.739998 33.156L34.739998 33.156L34.739998 33.156C 33.9 34.308 32.82 35.112 31.5 35.568L31.5 35.568L31.5 35.568L31.5 35.568L31.5 32.616L31.5 32.616L31.5 32.616C 31.5 31.68 31.176 30.876 30.528 30.204L30.528 30.204L30.528 30.204C 29.880001 29.532001 29.076 29.208 28.116 29.232L28.116 29.232L28.116 29.232C 27.156 29.256 26.364 29.58 25.74 30.204L25.74 30.204L25.74 30.204C 25.116 30.828 24.792 31.632 24.767998 32.616L24.767998 32.616L24.767998 32.616L24.767998 32.616L24.767998 36L24.767998 36L24.767998 36L24.767998 36L11.268 36L11.268 36L11.268 36L11.268 36L11.268 32.616L11.268 32.616L11.268 32.616C 11.268 31.68 10.932 30.876 10.26 30.204L10.26 30.204L10.26 30.204C 9.588 29.532001 8.796 29.208 7.884 29.232L7.884 29.232L7.884 29.232C 6.9719996 29.256 6.168 29.58 5.472 30.204L5.472 30.204L5.472 30.204C 4.776 30.828 4.4519997 31.632 4.5 32.616L4.5 32.616L4.5 32.616L4.5 32.616L4.5 35.568L4.5 35.568L4.5 35.568C 3.1799998 35.088 2.1 34.284 1.26 33.156L1.26 33.156L1.26 33.156C 0.42000002 32.028 0 30.720001 0 29.232L0 29.232L0 6.7320023z" stroke="#FFFFFF" stroke-width="1" fill="#FFFFFF" fill-rule="nonzero" />
	</g>
</g>
</svg>