<?xml version="1.0" standalone="no"?>
<!DOCTYPE svg PUBLIC "-//W3C//DTD SVG 1.0//EN" "http://www.w3.org/TR/2001/REC-SVG-20010904/DTD/svg10.dtd">
<svg xmlns="http://www.w3.org/2000/svg" xmlns:xlink="http://www.w3.org/1999/xlink" id="body_10" width="24" height="31">

<defs>
    <clipPath  id="1">

    <path id=""  clip-rule="evenodd" transform="matrix(1 0 0 1 0 0)"  d="M0 23L0 -0.25L0 -0.25L18 -0.25L18 -0.25L18 23L18 23L0 23z" />    </clipPath>
    <clipPath  id="2">

    <path id=""  clip-rule="evenodd" transform="matrix(1 0 0 1 0 0)"  d="M0 22.749424L0 22.749424L0 22.749424L0 -0.49999428L0 -0.49999428L0 -0.49999428L0 -0.49999428L17.99955 -0.49999428L17.99955 -0.49999428L17.99955 -0.49999428L17.99955 -0.49999428L17.99955 22.749424L17.99955 22.749424L17.99955 22.749424L17.99955 22.749424L0 22.749424z" />    </clipPath>
</defs>

<g transform="matrix(1.3333 0 0 1.3333 0 0)">
	<g clip-path="url(#1)" >
		<g clip-path="url(#2)" >
    <path id=""  transform="matrix(1 0 0 -1 0 23)"  d="M8.999775 4.3231993L8.999775 4.3231993L8.999775 4.3231993L8.999775 4.3231993L8.999775 4.3231993L8.999775 4.3231993L8.999775 4.3231993L4.4998875 10.862135L4.4998875 10.862135L4.4998875 10.862135L4.4998875 10.862135L4.4998875 10.862135L4.4998875 10.862135L4.4998875 10.862135C 3.9374015 11.875285 2.999925 13.317123 2.999925 14.781463L2.999925 14.781463L2.999925 14.781463L2.999925 14.781463L2.999925 14.781463L2.999925 14.781463L2.999925 14.781463C 2.999925 17.991339 5.686357 20.593817 8.999775 20.593817L8.999775 20.593817L8.999775 20.593817L8.999775 20.593817L8.999775 20.593817L8.999775 20.593817L8.999775 20.593817C 12.313191 20.593817 14.999625 17.991339 14.999625 14.781463L14.999625 14.781463L14.999625 14.781463L14.999625 14.781463L14.999625 14.781463L14.999625 14.781463L14.999625 14.781463C 14.999625 13.317123 14.229019 11.875285 13.499662 10.862135L13.499662 10.862135L13.499662 10.862135L13.499662 10.862135L8.999775 4.3231993z" stroke="#FFFFFF" stroke-width="0.99997497" fill="#FA2200" fill-rule="nonzero" />
    <path id=""  transform="matrix(1 0 0 -1 0 23)"  d="M8.999775 23.499994C 4.0296493 23.499994 0 19.596273 0 14.781463L0 14.781463L0 14.781463L0 14.781463L0 14.781463L0 14.781463L0 14.781463C 0 12.88551 0.64160895 11.145853 1.7080821 9.721115L1.7080821 9.721115L1.7080821 9.721115L1.7080821 9.721115L1.7080821 9.721115L1.7080821 9.721115L1.7080821 9.721115C 1.7272067 9.686915 1.7302066 9.648815 1.7519562 9.616116L1.7519562 9.616116L1.7519562 9.616116L1.7519562 9.616116L7.7518063 0.897584L7.7518063 0.897584L7.7518063 0.897584C 8.030048 0.49327052 8.498787 0.25057602 8.999775 0.25057602L8.999775 0.25057602L8.999775 0.25057602L8.999775 0.25057602L8.999775 0.25057602L8.999775 0.25057602L8.999775 0.25057602C 9.500763 0.25057602 9.9695015 0.49327052 10.247743 0.897584L10.247743 0.897584L10.247743 0.897584L10.247743 0.897584L16.247593 9.616116L16.247593 9.616116L16.247593 9.616116C 16.26972 9.648815 16.272345 9.686915 16.291466 9.721115L16.291466 9.721115L16.291466 9.721115L16.291466 9.721115L16.291466 9.721115L16.291466 9.721115L16.291466 9.721115C 17.35794 11.145853 17.99955 12.88551 17.99955 14.781463L17.99955 14.781463L17.99955 14.781463L17.99955 14.781463L17.99955 14.781463L17.99955 14.781463L17.99955 14.781463C 17.99955 19.596273 13.969901 23.499994 8.999775 23.499994zM13.499662 10.862135L13.499662 10.862135L13.499662 10.862135L13.499662 10.862135L13.499662 10.862135L13.499662 10.862135L13.499662 10.862135L8.999775 4.3231993L8.999775 4.3231993L8.999775 4.3231993L8.999775 4.3231993L4.4998875 10.862135L4.4998875 10.862135L4.4998875 10.862135L4.4998875 10.862135L4.4998875 10.862135L4.4998875 10.862135L4.4998875 10.862135C 3.9374015 11.875285 2.999925 13.317123 2.999925 14.781463L2.999925 14.781463L2.999925 14.781463L2.999925 14.781463L2.999925 14.781463L2.999925 14.781463L2.999925 14.781463C 2.999925 17.991339 5.686357 20.593817 8.999775 20.593817L8.999775 20.593817L8.999775 20.593817L8.999775 20.593817L8.999775 20.593817L8.999775 20.593817L8.999775 20.593817C 12.313191 20.593817 14.999625 17.991339 14.999625 14.781463L14.999625 14.781463L14.999625 14.781463L14.999625 14.781463L14.999625 14.781463L14.999625 14.781463L14.999625 14.781463C 14.999625 13.317123 14.229019 11.875285 13.499662 10.862135z" stroke="#FFFFFF" stroke-width="0.99997497" fill="#FFFFFF" fill-rule="nonzero" />
    <path id=""  transform="matrix(1 0 0 -1 0 23)"  d="M8.999775 11.875285C 10.656558 11.875285 11.9997 13.176428 11.9997 14.781463L11.9997 14.781463L11.9997 14.781463L11.9997 14.781463L11.9997 14.781463L11.9997 14.781463L11.9997 14.781463C 11.9997 16.386497 10.656558 17.68764 8.999775 17.68764L8.999775 17.68764L8.999775 17.68764L8.999775 17.68764L8.999775 17.68764L8.999775 17.68764L8.999775 17.68764C 7.342962 17.68764 5.99985 16.386497 5.99985 14.781463L5.99985 14.781463L5.99985 14.781463L5.99985 14.781463L5.99985 14.781463L5.99985 14.781463L5.99985 14.781463C 5.99985 13.176428 7.342962 11.875285 8.999775 11.875285z" stroke="#FFFFFF" stroke-width="0.99997497" fill="#FFFFFF" fill-rule="nonzero" />
		</g>
	</g>
</g>
</svg>